<?xml version="1.0" standalone="no"?>
<!DOCTYPE svg PUBLIC "-//W3C//DTD SVG 20010904//EN"
 "http://www.w3.org/TR/2001/REC-SVG-20010904/DTD/svg10.dtd">
<svg version="1.0" xmlns="http://www.w3.org/2000/svg"
 width="1536.000000pt" height="1536.000000pt" viewBox="0 0 1536.000000 1536.000000"
 preserveAspectRatio="xMidYMid meet">
<metadata>
Created by potrace 1.11, written by Peter Selinger 2001-2013
</metadata>
<g transform="translate(0.000000,1536.000000) scale(0.100000,-0.100000)"
fill="#000000" stroke="none">
<path d="M5888 14207 l-1647 -952 0 -5485 -1 -5485 1655 -959 1655 -958 80 52
80 53 0 7292 0 7292 -78 52 c-43 28 -82 51 -88 50 -5 0 -750 -429 -1656 -952z"/>
<path d="M9182 14111 c-34 -15 -67 -32 -73 -38 -12 -12 -9 -5456 3 -5468 3 -3
39 -3 80 2 84 10 -161 -134 1953 1150 589 357 1392 845 1785 1083 889 539 973
591 963 600 -23 20 -4624 2700 -4635 2699 -7 0 -41 -13 -76 -28z"/>
<path d="M2294 12110 l-1099 -638 -2 -3688 -3 -3689 668 -384 c367 -212 862
-497 1100 -634 l433 -250 79 23 80 23 0 4913 0 4912 -52 17 c-29 9 -65 20 -79
25 -23 7 -162 -71 -1125 -630z"/>
<path d="M13440 9398 c-129 -73 -833 -464 -1565 -870 -731 -406 -1331 -742
-1332 -746 -2 -4 704 -411 1567 -904 l1570 -898 110 0 110 0 0 1775 0 1775
-112 0 -113 -1 -235 -131z"/>
<path d="M9105 6245 c-3 -390 -5 -1623 -3 -2739 l3 -2029 79 -34 79 -34 137
83 c75 46 1118 679 2318 1408 1200 729 2182 1327 2181 1330 0 6 251 -141
-2404 1408 l-2230 1300 -77 9 -76 9 -7 -711z"/>
</g>
</svg>
